<svg xmlns="http://www.w3.org/2000/svg" viewBox="0 0 319.29 91.1"><defs><style>.cls-1{fill:none;}.cls-2{fill:#00a1d9;}</style></defs><title>Asset 8</title><g id="Layer_2" data-name="Layer 2"><g id="Layer_1-2" data-name="Layer 1"><rect class="cls-1" x="318.41" y="3.61" width="0.88" height="83.45"/><path class="cls-2" d="M11.17,24.94c1.36-1.1,3-2.46,4.85-4.06.68-.59,1.24-1.1,1.66-1.52a5.9,5.9,0,0,0,1.09-1.52,18.2,18.2,0,0,0,.89-2.22L20.88,12h-.13a8.66,8.66,0,0,1-2.24,3.17,33.49,33.49,0,0,1-2.93,2.22,27.48,27.48,0,0,0-3.19,2.54,13.51,13.51,0,0,0-2.88,4V23.8c.76-2.2,1.34-4.06,1.72-5.58s.72-2.86,1-4a13.42,13.42,0,0,1,1.14-3A7.86,7.86,0,0,1,15.6,8.83V8.7A9.58,9.58,0,0,0,10,12.76a12.32,12.32,0,0,0-2.16,7.11v8.87A14.05,14.05,0,0,1,11.17,24.94Zm6-10.85a42.51,42.51,0,0,0,3.23-3.74c1-1.27,1.91-2.47,2.79-3.61a21,21,0,0,1,3-3.11l-.13-.13A7.19,7.19,0,0,1,23.19,5a16,16,0,0,0-3.61,1.65,12.78,12.78,0,0,0-3.68,3.62,22.57,22.57,0,0,0-3,7.29A24.7,24.7,0,0,0,17.17,14.09ZM2.94,47.26A37.25,37.25,0,0,0,5.78,51a28.94,28.94,0,0,1,3.09,4.51H9a12.71,12.71,0,0,1-.16-2V51.7a13.35,13.35,0,0,1,.72-3.36c.48-1.56,1-3.3,1.5-5.2s1-3.83,1.37-5.77a17,17,0,0,0,.33-5.2H12.6a10.81,10.81,0,0,1-1.34,3.23l-2,3.3a24.6,24.6,0,0,0-1.79,3.68,11.62,11.62,0,0,0-.76,4.25A10.14,10.14,0,0,0,7,48.72a12.21,12.21,0,0,1,.3,1.59H7.21A31.37,31.37,0,0,0,5.78,45c-.62-1.69-1.24-3.26-1.85-4.69s-1.14-2.75-1.55-3.94a9.32,9.32,0,0,1-.62-2.92c0-.84,0-1.52.08-2s.08-1.15.08-1.91H1.79a28.85,28.85,0,0,0-1,3.3,15.81,15.81,0,0,0-.61,4.06A20.31,20.31,0,0,0,.92,43,16.84,16.84,0,0,0,2.94,47.26ZM26,81.64a12.07,12.07,0,0,0,1.39.06,14.13,14.13,0,0,0,1.9-.12c.59-.09,1.36-.21,2.28-.38s2.14-.45,3.62-.83,3.44-.86,5.89-1.46c-1.61-.42-3-.82-4.18-1.2a9.49,9.49,0,0,1-3.55-2.2c-1.44-1.26-2.87-2.57-4.31-3.92-1.12-1-2.3-2-3.43-3.06-.32-.29-2-1.76-2.47-2.24l-.12.13c.19.3,1.75,3.44,1.75,3.44s.25.34.35.52c.42.75.84,1.51,1.25,2.27.16.3.32.6.47.9A6.91,6.91,0,0,0,29,76a13.74,13.74,0,0,0,5.33,2.65v.13l-2.73-.44c-.75-.13-1.43-.23-2-.32s-1.23-.14-1.86-.19-1.53-.09-2.28-.2-1.18-.21-1.79-.27l-1.75-.2-.92-.11a20.74,20.74,0,0,1-3.18-.57,11,11,0,0,1-2.87-1.2,18,18,0,0,1-3.06-2.35l-.13.13a15.88,15.88,0,0,0,1.72,2.41A20.07,20.07,0,0,0,16.09,78a15.05,15.05,0,0,0,3.76,2.19,20.26,20.26,0,0,0,5,1.29ZM6.25,41.93h.16a12.1,12.1,0,0,1,.37-2,11,11,0,0,1,.94-2.15,33.26,33.26,0,0,1,1.94-3q1.26-1.77,3.39-4.82a16.48,16.48,0,0,0,2-4.44c.5-1.69.84-2.91,1-3.67h-.13a5.08,5.08,0,0,1-.57,1.07,12.72,12.72,0,0,1-.81,1,18,18,0,0,1-1.32,1.33c-.54.51-1.27,1.19-2.19,2a12.15,12.15,0,0,0-3.26,4.19,27.07,27.07,0,0,0-1.25,4.18H6.41c0-.67.09-1.33.12-2s0-1.46,0-2.48c0-1.26-.08-2.74-.25-4.44s-.23-3.88-.23-6.59a5.82,5.82,0,0,1,.5-2.41q.5-1.14.87-2.16H7.33A21.33,21.33,0,0,0,3.68,22a19.1,19.1,0,0,0-1,5.89A18.26,18.26,0,0,0,4,34.51,54.26,54.26,0,0,1,6.25,41.93ZM19.46,74.79,24.76,76l2.76.63A22.32,22.32,0,0,1,24.82,73a18.13,18.13,0,0,1-1.65-3.49Q22.41,67.44,21,64a16.45,16.45,0,0,0-.82-2q-.45-.88-1-1.83c-.39-.64-.85-1.35-1.4-2.16s-1.25-1.8-2.1-3l-.13.13c.25.84.61,2.37,1.08,4.56s.9,4.27,1.33,6.22a9.43,9.43,0,0,0,1.71,4,22.33,22.33,0,0,0,3.48,3.74l-.13.13a11.26,11.26,0,0,1-3.06-2,22.37,22.37,0,0,0-4.59-2.92,68.6,68.6,0,0,1-7.58-4.25,11.38,11.38,0,0,1-4.14-5l-.13.12A19,19,0,0,0,5.86,65.4a20.24,20.24,0,0,0,3.77,4.44A21.8,21.8,0,0,0,14.35,73,20.48,20.48,0,0,0,19.46,74.79ZM7.6,61.72,17,67.94c-.42-.85-.77-1.65-1.06-2.41A14.42,14.42,0,0,1,15.23,63c-.16-.93-.31-2-.43-3.11s-.27-2.51-.43-4.12c-.33-2.79-.62-4.94-.87-6.47a26.89,26.89,0,0,0-1.36-4.95H12A29.59,29.59,0,0,1,11.82,48a24.71,24.71,0,0,1-.51,2.8c-.21.84-.38,1.62-.5,2.34a14,14,0,0,0-.19,2.47,11,11,0,0,0,.82,3.62A31.67,31.67,0,0,0,13,62.86l-.12.13a36.88,36.88,0,0,0-4.25-5.64L4.82,53.29A29.15,29.15,0,0,1,1.9,49.67,10.39,10.39,0,0,1,.32,45.23a10.32,10.32,0,0,0-.24,1.21A9.18,9.18,0,0,0,0,47.64,13.38,13.38,0,0,0,.76,52a21.23,21.23,0,0,0,1.9,4.12A20.56,20.56,0,0,0,5.13,59.5,13.22,13.22,0,0,0,7.6,61.72Zm77.09-55c.88,1.14,1.82,2.35,2.79,3.62a45.61,45.61,0,0,0,3.23,3.74A24.3,24.3,0,0,0,95,17.59a22.57,22.57,0,0,0-3-7.29A12.73,12.73,0,0,0,88.3,6.69,16,16,0,0,0,84.69,5a7.45,7.45,0,0,1-2.86-1.52l-.13.13A20.88,20.88,0,0,1,84.69,6.75ZM93,75.3a11.33,11.33,0,0,1-2.87,1.21,23.37,23.37,0,0,1-3.19.57l-.91.1-1.76.2c-.6.07-1.18.18-1.78.27s-1.53.16-2.28.21-1.24.1-1.86.19-1.3.19-2,.31-1.65.28-2.73.44v-.12A13.74,13.74,0,0,0,78.9,76,7,7,0,0,0,81,73.56l.47-.9c.41-.76.83-1.51,1.25-2.26a5.3,5.3,0,0,1,.35-.52s1.56-3.14,1.75-3.45l-.12-.13c-.48.49-2.15,2-2.47,2.25-1.13,1-2.31,2-3.43,3.06-1.44,1.34-2.87,2.65-4.31,3.91A9.53,9.53,0,0,1,71,77.73c-1.18.38-2.57.78-4.18,1.2,2.45.59,4.42,1.08,5.89,1.46s2.69.65,3.61.82,1.7.3,2.29.38a12.61,12.61,0,0,0,1.9.13c.5,0,1,0,1.39-.06l1.21-.13a20.26,20.26,0,0,0,5-1.29,15.55,15.55,0,0,0,3.76-2.19,20.11,20.11,0,0,0,2.68-2.56,15.4,15.4,0,0,0,1.72-2.41L96.06,73A18.38,18.38,0,0,1,93,75.3Zm7.11-10.71a70.28,70.28,0,0,1-7.58,4.25,21.56,21.56,0,0,0-4.59,2.92,11.52,11.52,0,0,1-3.06,2l-.13-.13a23.13,23.13,0,0,0,3.48-3.74,9.53,9.53,0,0,0,1.71-4q.65-2.91,1.33-6.21c.47-2.2.83-3.72,1.08-4.57L92.22,55c-.85,1.19-1.55,2.18-2.1,3s-1,1.52-1.4,2.15S88,61.4,87.7,62a15.84,15.84,0,0,0-.82,2c-.94,2.29-1.66,4.12-2.17,5.52A18,18,0,0,1,83.06,73a22.73,22.73,0,0,1-2.7,3.58L83.12,76l5.3-1.16A20.48,20.48,0,0,0,93.53,73a22.13,22.13,0,0,0,4.72-3.16A20.24,20.24,0,0,0,102,65.42a19.25,19.25,0,0,0,2.36-5.71l-.13-.13A11.4,11.4,0,0,1,100.11,64.59ZM104,40.3Q103,42.46,102.1,45a31.63,31.63,0,0,0-1.43,5.33h-.12a12.21,12.21,0,0,1,.3-1.59,10,10,0,0,0,.3-2.09,11.66,11.66,0,0,0-.76-4.25,25.09,25.09,0,0,0-1.79-3.68c-.68-1.14-1.34-2.24-2-3.29a11,11,0,0,1-1.34-3.24h-.13a17,17,0,0,0,.33,5.2q.58,2.92,1.37,5.77t1.5,5.2a13.43,13.43,0,0,1,.72,3.36v1.78a12.62,12.62,0,0,1-.16,2H99A28.34,28.34,0,0,1,102.1,51a38.43,38.43,0,0,0,2.84-3.74A17.18,17.18,0,0,0,107,43a20.4,20.4,0,0,0,.76-6.15,15.75,15.75,0,0,0-.61-4.06,28.2,28.2,0,0,0-1-3.3H106c0,.76,0,1.4.08,1.9s.08,1.18.08,2a9.43,9.43,0,0,1-.62,2.92C105.09,37.55,104.57,38.87,104,40.3Zm-3.85-8.88a12.13,12.13,0,0,0-3.26-4.18l-2.2-2c-.54-.51-1-1-1.31-1.34a12.75,12.75,0,0,1-.81-1A4.74,4.74,0,0,1,92,21.78h-.13c.17.76.51,2,1,3.68a16.76,16.76,0,0,0,2,4.44c1.42,2,2.55,3.63,3.39,4.82a33.29,33.29,0,0,1,1.94,3,11.29,11.29,0,0,1,.94,2.16,11.91,11.91,0,0,1,.37,2h.16a52.1,52.1,0,0,1,2.22-7.42,18.3,18.3,0,0,0,1.31-6.66,19.21,19.21,0,0,0-1-5.9,21.17,21.17,0,0,0-3.65-6.4h-.13c.25.67.54,1.39.87,2.15a5.85,5.85,0,0,1,.5,2.41q0,4.07-.24,6.6t-.24,4.44c0,1,0,1.84,0,2.47s.07,1.29.12,2h-.12A27.21,27.21,0,0,0,100.1,31.42ZM94.5,11.25a13.33,13.33,0,0,1,1.14,3c.29,1.14.63,2.47,1,4s.95,3.38,1.72,5.58v.13a13.7,13.7,0,0,0-2.88-4,28.22,28.22,0,0,0-3.19-2.53,35.26,35.26,0,0,1-2.94-2.22A8.85,8.85,0,0,1,87.13,12H87c.51,1.52.92,2.72,1.22,3.61a17,17,0,0,0,.89,2.22,5.94,5.94,0,0,0,1.08,1.52c.43.43,1,.93,1.67,1.52q2.81,2.41,4.85,4.06A14,14,0,0,1,100,28.76V19.88a12.32,12.32,0,0,0-2.16-7.1,9.54,9.54,0,0,0-5.59-4.06v.13A8,8,0,0,1,94.5,11.25Zm-14.69,73A10.4,10.4,0,0,1,77.72,84l-2.35-.44v0c-.75-.24-1.6-.53-2.56-.87s-2.14-.76-3.5-1.27L63.9,79.58A11.19,11.19,0,0,0,60.27,79a17.9,17.9,0,0,0-3.7.44c-1.26.28-2.18.5-2.78.66-.53-.16-1.41-.38-2.67-.66A17.71,17.71,0,0,0,47.45,79a11,11,0,0,0-3.61.63c-1.23.42-3,1-5.39,1.89-2.79,1-4.86,1.72-6.21,2.14a14,14,0,0,1-4.18.62,13.2,13.2,0,0,1-1.78-.12,6.87,6.87,0,0,1-1.52-.38s-1.19-.35-1.85-.63L20.49,82l-.12.12a25,25,0,0,0,4.45,3.42,13.93,13.93,0,0,0,7,2,18.42,18.42,0,0,0,2.72-.19,10.44,10.44,0,0,0,2.41-.7c.8-.33,1.69-.76,2.66-1.26s2.14-1.18,3.49-2,2.64-1.67,3.61-2.22a6.8,6.8,0,0,1,3.36-.82,5.09,5.09,0,0,1,1.52.25Q49.1,82,45.85,84a29.55,29.55,0,0,0-6.27,5.22l2.15,1.9A45.81,45.81,0,0,1,48,85a21.24,21.24,0,0,1,5.84-3.62A22.13,22.13,0,0,1,59.68,85,44.08,44.08,0,0,1,66,91.1l2.16-1.9A28.88,28.88,0,0,0,61.78,84q-3.3-2-5.84-3.34a7.67,7.67,0,0,1,1.66-.25,6.84,6.84,0,0,1,3.37.82q1.47.83,3.63,2.22l3.31,1.95a17.14,17.14,0,0,0,2.61,1.27,19.49,19.49,0,0,0,2.36.7,12.64,12.64,0,0,0,2.49.25h.51a15.37,15.37,0,0,0,5.78-1.27,15.2,15.2,0,0,0,5.65-4.18V82a38.49,38.49,0,0,1-4.2,1.72A10.57,10.57,0,0,1,79.81,84.23Zm28.06-36.81c0-.13,0-.26,0-.39a5.61,5.61,0,0,0-.06-.59c-.06-.38-.14-.78-.24-1.21A10.48,10.48,0,0,1,106,49.68a31.62,31.62,0,0,1-2.9,3.61l-.21.22-3.61,3.85a37.08,37.08,0,0,0-4.17,5.54l0,0a25.32,25.32,0,0,0,1.49-3.62,11.63,11.63,0,0,0,.76-3.61,15.17,15.17,0,0,0-.19-2.48q-.19-1.08-.45-2.34C96.49,50,96.34,49,96.22,48A29.81,29.81,0,0,1,96,44.35H95.9l0,.08v-.07h-.13a26.89,26.89,0,0,0-1.36,5c-.24,1.52-.54,3.68-.87,6.46-.16,1.61-.3,3-.43,4.13s-.27,2.17-.43,3.11A14.31,14.31,0,0,1,92,65.54c-.25.65-.55,1.34-.89,2-.06.12-.13.23-.2.35l.05,0a.08.08,0,0,1,0,0l3.15-2.09,6.34-4.14a13.54,13.54,0,0,0,2.47-2.22,18.52,18.52,0,0,0,2.41-3.35,23.7,23.7,0,0,0,1.2-2.48c.23-.53.45-1.07.64-1.64a13.36,13.36,0,0,0,.76-4.37h0C107.88,47.57,107.87,47.5,107.87,47.42ZM71,10.08a3.72,3.72,0,0,1,.68.38,5.87,5.87,0,0,1,.42.5.55.55,0,0,0,.44.26c.24,0,.37-.09.37-.26s0-.23-.06-.19-.07,0-.07-.19a1,1,0,0,0-.24-.75,1,1,0,0,0-1.11-.26.37.37,0,0,0-.24-.12H71c-.24,0-.37.08-.37.25S70.77,10,71,10.08ZM57.53,7h.26a5.82,5.82,0,0,1,1.53-.32H61.1a.91.91,0,0,0,.77-.32,3.55,3.55,0,0,0,.38-.58,2.41,2.41,0,0,0-1.53-.9,9.65,9.65,0,0,0-1.27-.13,7.79,7.79,0,0,0-1.53.47c-.85.3-1.36.5-1.53.59-.43-.09-.68,0-.76.27a5.85,5.85,0,0,0,.69.59A2,2,0,0,0,57.53,7ZM53.7,76.53A38.27,38.27,0,1,0,15.44,38.26,38.31,38.31,0,0,0,53.7,76.53ZM17.39,39.23h5.82a30.3,30.3,0,0,0,1.2,7.54.71.71,0,0,1-.44-.31l-.18-.18-.64-.9-1.06.39c0,.59-.21.81-.63.64a.74.74,0,0,0-.51-.26,1.15,1.15,0,0,0-1.22,1.08,11.74,11.74,0,0,0-.19,1.47L20.43,51c.18.26.43.3.77.13A9.06,9.06,0,0,0,22,52a.89.89,0,0,0,.65.26.35.35,0,0,0,.4-.39h.13a7.62,7.62,0,0,1,.53.58,3.08,3.08,0,0,0,.66.57v-.12a1.55,1.55,0,0,0,1.08.46,3.06,3.06,0,0,0,.75,1.41,1.43,1.43,0,0,0,1,.52.74.74,0,0,0,.51-.26,4.25,4.25,0,0,0,.63,1.29,5.79,5.79,0,0,1,.64.38,3.31,3.31,0,0,1,.51.39h.26a2.28,2.28,0,0,0,.63,1,4.83,4.83,0,0,0,.77.64l-.08,0,.07,0h.09c.09.1.17.2.26.29l-4.11,4.11A36.19,36.19,0,0,1,17.39,39.23Zm28-10.73a3.24,3.24,0,0,0-.33-.2l-.39-.39a13.71,13.71,0,0,1,8-3.33v4.05a.59.59,0,0,0-.17-.1.64.64,0,0,1-.1-.13h0a.47.47,0,0,0-.31-.07.7.7,0,0,0-.14,0l0,0a1.18,1.18,0,0,0-.28,0,1,1,0,0,1-.3.06.29.29,0,0,1-.16,0c-.12-.09-.18-.27-.18-.58l0,0v0c-.35.17-.54.34-.58.51s-.11.46-.19.89a.94.94,0,0,1-.65.69,2.2,2.2,0,0,0-.77.45l-.39-.25h-.64a1.64,1.64,0,0,0-.39-.32,1,1,0,0,1-.25-.19q-.12-.13-.12,0a.31.31,0,0,0-.34.28l-.38-.37.1,0V29.2A5.68,5.68,0,0,0,45.43,28.5Zm-2.09-2-3.91-3.91a21.09,21.09,0,0,1,13.3-5.52v5.53A15.56,15.56,0,0,0,43.34,26.54ZM45.54,45c.2-.2.11-.57.19-.82l-.44.4a3.72,3.72,0,0,0,.76-1,3.52,3.52,0,0,1,.38-.7h0c.14.27.3.54.46.8l-3.57,3.57a13.58,13.58,0,0,1-3-5.75,3.26,3.26,0,0,1,.89.25,7.74,7.74,0,0,1,.8.73,1.11,1.11,0,0,0,.52-.13l.51.39a1,1,0,0,0,.13.63c0,.09.13.19.39.32a1.23,1.23,0,0,1,.52.44l.25-.12a4,4,0,0,0-.06-.51c0-.25,0-.38.06-.38l.25.89.26,1h0A.76.76,0,0,0,45.54,45ZM53.15,49c.21.21.31.36.31.44,0,.26-.34.38-1,.38-.26,0-.43.25-.52.73s-.17.89-.25,1.21l-.21,0s0,0,0,.05a13.73,13.73,0,0,1-6.78-3.16l3.45-3.45A8.16,8.16,0,0,0,53,47.39a.94.94,0,0,0,.12.54.85.85,0,0,0-.25.63C52.83,48.65,52.93,48.8,53.15,49Zm-17,.24a18.17,18.17,0,0,0-.26-2.17,10.45,10.45,0,0,0-.39-1.15,6,6,0,0,0-.4-1.72,7.3,7.3,0,0,0-1.21-1.59v-.74a3.23,3.23,0,0,0-.25-.74V41a.3.3,0,0,1,.2-.33l1.34-.46a3.16,3.16,0,0,1,.13-1.17l.93.16c.26,0,.39-.17.39-.53a4.3,4.3,0,0,0-.25-.79,2.77,2.77,0,0,1-.26-.92c0-.18.13-.33.38-.46a1.69,1.69,0,0,1,.76-.2,1,1,0,0,1,.89.44,2,2,0,0,1,.25,1,3.69,3.69,0,0,1-.06.69,2.44,2.44,0,0,0-.07.56l.26.13q-.26,1.26-1,1.26A.62.62,0,0,1,37,40a.53.53,0,0,0-.44-.32c-.08,0-.12,0-.12.13a1.27,1.27,0,0,0,.12.52,1.35,1.35,0,0,1,.13.64c0,.6-.27.81-.8.64-.18.32,0,.48.52.48.18.52.36.73.54.65a2.23,2.23,0,0,0,.26-.87,4.78,4.78,0,0,1,.26-1l.14.13.53-.13a1.06,1.06,0,0,0,0,.19h.15A15.49,15.49,0,0,0,42,48.62L36.58,54a.91.91,0,0,1-.29-.84c.11-.52.63-.84.7-1.38,0,0,.13-1,.13-1A5.25,5.25,0,0,1,36.19,49.25Zm-3.09-8a1,1,0,0,1,.13.5c0,.26-.08.37-.26.32h-.09a21,21,0,0,1-.34-2.88H33.6a1.39,1.39,0,0,1-.11.52,4.76,4.76,0,0,1-.32.51.84.84,0,0,0-.2.5A1.25,1.25,0,0,0,33.1,41.28Zm-.56-4A21.15,21.15,0,0,1,38.06,24L42,27.9l-.11.13a3.44,3.44,0,0,0-.68.24c-.17.21-.35.45-.56.75a5.82,5.82,0,0,0-1.21.64,7.18,7.18,0,0,0-1,1c-.51.26-.83.4-1,.45a1.17,1.17,0,0,0-.45.31c.17.43.17.66,0,.7l-1.28.32a.41.41,0,0,0-.25.13l-.38.38a1,1,0,0,0-.13.45.94.94,0,0,1-.13.44,2.39,2.39,0,0,0-.63.64,1.52,1.52,0,0,0,0,1.15l.16,1.27h-.06a1.9,1.9,0,0,1,.11.39ZM43.34,50a15.7,15.7,0,0,0,6.79,3.5l-.56.19a1,1,0,0,0-.77.83c-.08.51-.27.84-.57,1s-.4.32-.32.58a3.55,3.55,0,0,1,.89,1.54,1.59,1.59,0,0,0,1.28,1.15l.76.26a1.52,1.52,0,0,1,.76.28c.22,0,.44.06.66.11A21.07,21.07,0,0,1,39.43,53.9ZM38.06,21.26,34.2,17.39A28.48,28.48,0,0,1,52.73,9.7v5.47A23.06,23.06,0,0,0,38.06,21.26ZM36.7,22.63A23,23,0,0,0,30.61,37.3H25.14a28.48,28.48,0,0,1,7.69-18.54Zm-6.09,16.6a23.62,23.62,0,0,0,.3,2.82,4.32,4.32,0,0,1-.21-.38c-.3-.41-.56-.62-.75-.62a.51.51,0,0,0-.52.32,1.66,1.66,0,0,1-.39.57,3.5,3.5,0,0,1-1.41.64,3.15,3.15,0,0,0-.77,1.53.44.44,0,0,0,.06.51c.13.17.06.34-.19.51.17.34.21.55.13.64.08.17.06.23-.07.19a.3.3,0,0,0-.32.06.79.79,0,0,0-.18.29,28.1,28.1,0,0,1-1.15-7.08ZM52.73,74.57a36.2,36.2,0,0,1-24-10l4.11-4.12a30.38,30.38,0,0,0,19.9,8.26Zm0-7.75A28.47,28.47,0,0,1,34.28,59.2a2.54,2.54,0,0,0,1,.28,2.76,2.76,0,0,0,1-.27,11.36,11.36,0,0,0,1.15-.54,2.11,2.11,0,0,0,1.15-.25,1.91,1.91,0,0,0,1,0,.6.6,0,0,0,.45-.64.88.88,0,0,0-.45-.7c-.31-.21-.46-.4-.46-.57s-.08-.19-.26-.32a7.24,7.24,0,0,1-.82-.92h0a23.05,23.05,0,0,0,14.67,6.08Zm1-14.2v0a2.74,2.74,0,0,1-1.26-.2c0-.11-.09-.22-.13-.34a5.28,5.28,0,0,1,.6-.39,1.73,1.73,0,0,1,.79-.33V51l.94-.71a1.1,1.1,0,0,1,.33-.12,4.78,4.78,0,0,0,.72-.26,4.52,4.52,0,0,1,1,.45,4.06,4.06,0,0,0,1,.44l.13-.51c.17,0,.42.17.76.51a1.25,1.25,0,0,0,.64-.25.88.88,0,0,0,0-.64,1.11,1.11,0,0,1,.38.13.24.24,0,0,1,.19.07.27.27,0,0,0,.19.06h.13a1.41,1.41,0,0,0,.7-.32,6.27,6.27,0,0,1,.7-.45.16.16,0,0,1,.25,0,.73.73,0,0,1,.13.51,1.63,1.63,0,0,1-1.08,1.53,17.07,17.07,0,0,1-1.85.76,2.41,2.41,0,0,0-.32.58c-.12.3-.27.44-.44.44A7.44,7.44,0,0,1,56.66,53a2.62,2.62,0,0,1-.39-.77,4.22,4.22,0,0,0-.92.13l-1.05.26A1.24,1.24,0,0,1,53.76,52.62Zm5.52-4.2a1,1,0,0,1,.64-.83,2.83,2.83,0,0,1,1-.19c0,.25-.24.51-.7.76a3.23,3.23,0,0,1-.83.38Zm3.95-3.12a1,1,0,0,1,.51,1,.45.45,0,0,1-.51.51c-.26,0-.47-.3-.64-.89-.6-.17-.93-.45-1-.83s0-.61.13-.7a3.52,3.52,0,0,1,.51-.19c.17,0,.21.15.13.57ZM75.5,23.92a.36.36,0,0,1,.26.13,1.55,1.55,0,0,1,.89.25,9.7,9.7,0,0,1,1.54,1.91c.09,0,.19.13.32.39s.28.38.45.38a1.85,1.85,0,0,0,.66-.21c0-.12,0-.23.08-.35A28.51,28.51,0,0,1,82.26,37.3h-5.4a.3.3,0,0,1,0-.1,2.72,2.72,0,0,0-.3-1.42,2.77,2.77,0,0,1-.18-1.88,2,2,0,0,0,.07-1.07A.75.75,0,0,0,76,33a2.11,2.11,0,0,0-.33.57c-.12.3-.23.53-.31.7v.07a1,1,0,0,0-.1.24,1,1,0,0,1-.13.32c-.09.34-.17.68-.26,1a2.62,2.62,0,0,0,0,1,0,0,0,0,1,0,0l0,.39H72.11a1.56,1.56,0,0,1,.59-.39h-.09l.74-.37a.41.41,0,0,1-.25-.38c0-.25,0-.4.13-.44s.32-.15.74-.31a5.34,5.34,0,0,0,.68-1.19,7.71,7.71,0,0,0,1-2.53c0-.2-.26-.45-.29-.66a3.69,3.69,0,0,1,.06-.55c0-.89.41-2.44-.74-2.72-.09,0-.13-.13-.13-.38a.88.88,0,0,0,.26-1H74a1.14,1.14,0,0,1,.19-.45,1.12,1.12,0,0,0,.2-.57A.34.34,0,0,0,74,25a1.39,1.39,0,0,0-.65.13,1,1,0,0,1-.4.13.6.6,0,0,1-.2,0L72.58,25A2,2,0,0,0,72,23.72,2.49,2.49,0,0,0,71,23l0,0a.83.83,0,0,0,0-.54L72,21.3l1.55.56a1,1,0,0,0,.4.89,4.61,4.61,0,0,0,.54.38,5.68,5.68,0,0,1,.61.46v.07C75.29,23.84,75.42,23.92,75.5,23.92ZM70.25,61a.44.44,0,0,0-.32-.13c-.13,0-.19-.08-.19-.25s.13-.34.39-.51a1.92,1.92,0,0,0,.64-.89A2,2,0,0,0,71,58.4a.29.29,0,0,0-.2-.31,1.35,1.35,0,0,1-.45-.32,5.12,5.12,0,0,0-.57-.25,4.23,4.23,0,0,1-.7-.39.74.74,0,0,1-.39-.64,3.26,3.26,0,0,1,.19-.63c0-.11.09-.23.14-.34l.29-.25,2.94,2.94c0,.34.21.53.6.6l.32.32a28,28,0,0,1-3.29,2.64,1.12,1.12,0,0,1,.22-.33.56.56,0,0,1,.15-.1A.6.6,0,0,0,70.25,61ZM68.48,47a.89.89,0,0,0-.78.13,1.13,1.13,0,0,0-.77.75c0,.08-.05.12-.13.12a1.2,1.2,0,0,0-.51.13,4.66,4.66,0,0,0-.64.26c-.25,0-.38-.09-.38-.26s.38-.42,1.15-.51q.49-.62.63-.75a1.45,1.45,0,0,1,.59-.25,2.75,2.75,0,0,0,1-.93,3.09,3.09,0,0,0,.48-.81h.12c0,.41.18.62.53.62s.49-.29.67-.88a4.59,4.59,0,0,0,1.07.26,1,1,0,0,0,.93-.49H74a.56.56,0,0,0,0,.12l0,.1h0a21.29,21.29,0,0,1-4.27,7.62c0-.13,0-.26,0-.39,0,0-.38-1.16-.46-1.16s-.37.3-.61.89-.4,1-.48,1.14l-1.28.26a4.9,4.9,0,0,1-1.14.13,3.21,3.21,0,0,1-1.08-.45,3.44,3.44,0,0,0-1.09-.44,7.83,7.83,0,0,0-1.08-.26c-.47-.08-.7-.21-.7-.38s.17-.38.51-.38a5.12,5.12,0,0,1,1,.19l1.53.38,1.4.38a4.14,4.14,0,0,0,.76.19l.77-.25a1.55,1.55,0,0,1,.25-.7,1.48,1.48,0,0,0,.26-.7,5.68,5.68,0,0,0,.47-1.4,6.77,6.77,0,0,0,.21-1.53C68.87,47.28,68.73,47,68.48,47Zm3.38-7.72h3a21.64,21.64,0,0,1-.5,3.72,4.21,4.21,0,0,0-.65-1.14l-1-1c-.09-.42-.15-.72-.2-.89a1.07,1.07,0,0,0-.17-.3A2.07,2.07,0,0,1,71.86,39.23ZM73.1,54.81c-.26,0-.38.07-.38.19a6.93,6.93,0,0,1-.12.79L70.7,53.9A23,23,0,0,0,76.08,44l.09-.08q.64.24.84,0a.76.76,0,0,0,.19-.38,1.73,1.73,0,0,0-.63-1h-.16a23.94,23.94,0,0,0,.38-3.31h5.47a28.48,28.48,0,0,1-7.69,18.53l-.24-.23v-.05c-.08-.59-.17-1.16-.28-1.72S73.61,54.81,73.1,54.81ZM71.75,27.2a.1.1,0,0,0,0,0,2,2,0,0,1-.13.64,6.66,6.66,0,0,1-.25.64,3.88,3.88,0,0,0,1,.89,10.08,10.08,0,0,1,1.15.89,6.16,6.16,0,0,1,.57,1.47,6.79,6.79,0,0,1,.32,1.35,3.05,3.05,0,0,1-.38.9,1.51,1.51,0,0,1-1.27.77l-.13-.13a1.83,1.83,0,0,1,.25-.75,2,2,0,0,0,.26-.76,1,1,0,0,0,.51-.75l-.39-.19a4.42,4.42,0,0,1-.63-.57c0-.25-.26-.37-.76-.37a1,1,0,0,0-.64.19,7.6,7.6,0,0,1-.64.44l-.25-.51a1.25,1.25,0,0,0,.13-.53l-1-1.71a4,4,0,0,0-1.4-.44,2.31,2.31,0,0,0-1,0,2.37,2.37,0,0,1-1-.05A1.32,1.32,0,0,0,65,29a4.4,4.4,0,0,0-.84.83c-.13.15,0,.36-.33.28a1.81,1.81,0,0,1-.32-.34L69.33,24a1.33,1.33,0,0,0,.14.19l.51.57c.18.21.36.44.54.68A21.49,21.49,0,0,1,71.75,27.2ZM57.87,65.4a4.6,4.6,0,0,0,1.63.84,28.47,28.47,0,0,1-4.83.58V61.35h0a3.24,3.24,0,0,0,.81.86,3.55,3.55,0,0,0,1.12.19c.57.05.86.15.86.32a1.2,1.2,0,0,1-.19.57,1.18,1.18,0,0,0-.2.58A1.93,1.93,0,0,0,57.87,65.4Zm-3.2,9.17V68.75A30.47,30.47,0,0,0,61,67.88.61.61,0,0,1,61,68a.45.45,0,0,1,0,.16,4.46,4.46,0,0,1,1.27,1.21c.17.34.64.51,1.4.51.43,0,.7-.08.83-.25a4.11,4.11,0,0,1,.45-.51,1.61,1.61,0,0,1,.63-.39.78.78,0,0,0,.51-.38,1.64,1.64,0,0,0,.9-.76,2.33,2.33,0,0,0,.76-1,.68.68,0,0,0,.51-.31,4,4,0,0,0,.51-1.34l.22-.13a1.25,1.25,0,0,1,0-.19,31.08,31.08,0,0,0,5.49-4.11l4.11,4.12A36.2,36.2,0,0,1,54.67,74.57ZM80.05,63.24l-4.12-4.11a30.36,30.36,0,0,0,8.26-19.9H90A36.23,36.23,0,0,1,80.05,63.24ZM90,37.3H84.19a30.29,30.29,0,0,0-5.88-17,1.55,1.55,0,0,0-.29-.53,1.85,1.85,0,0,0-.33-.29c-.47-.61-1-1.19-1.49-1.76a1.74,1.74,0,0,1-.16-.41l4-4A36.25,36.25,0,0,1,90,37.3ZM54.67,2a36.15,36.15,0,0,1,24,10l-3.54,3.54a2.7,2.7,0,0,1-.2-.54c-.28-.25-.46-.4-.53-.4a1,1,0,0,1-.58-.81,1.35,1.35,0,0,0-.32-.82,2.32,2.32,0,0,1-1.28-1.12c-.34-.58-.68-.88-1-.88a1.07,1.07,0,0,1-.83-.09,2.69,2.69,0,0,0-.83-.23,3,3,0,0,0-.9.13,8.47,8.47,0,0,1-1,.25l-.13.13A30.25,30.25,0,0,0,55.1,7.8c.33-.53.38-.88.12-1-.07-.07-.26,0-.55.31Zm0,7.74a28.63,28.63,0,0,1,11.85,3,.29.29,0,0,0,0,.09c.15.15.32.34.51.56s.36.42.44.5A8.48,8.48,0,0,0,67.83,15a5.25,5.25,0,0,0,.39.63,1.37,1.37,0,0,0,.19,1.07,8.56,8.56,0,0,0,.7,1.07l.51-.06a3.25,3.25,0,0,1,.63-.07.84.84,0,0,1,.58.38,2.34,2.34,0,0,1,.44.77,1.52,1.52,0,0,1,.11.42l-1.56,1.56h0a8.55,8.55,0,0,0-.76-2.11,1.21,1.21,0,0,0-1-.33c-.09-.08-.38-.45-.89-1.09s-.8-1-.89-1a.5.5,0,0,0-.38.13,4.49,4.49,0,0,0,.26.45l.51.84a.23.23,0,0,1-.26.26.84.84,0,0,0,.64.64l-.13.25.37.75a23,23,0,0,0-12.62-4.42Zm0,7.41A21.07,21.07,0,0,1,68,22.63l-3.91,3.91a15.56,15.56,0,0,0-9.39-3.9Zm0,7.47a13.62,13.62,0,0,1,7.58,3,.81.81,0,0,0-.26.15,1,1,0,0,1-.26.18q-.12.06-.12.3c0,.21.28.29.48.32L60.59,30h0a2.49,2.49,0,0,0-.57.4c-.35.17-.54.32-.59.45s-.07.24-.12.44l-.5.5a.78.78,0,0,1-.22,0c-.17,0-.43-.17-.78-.52s-.61-.51-.78-.51a.77.77,0,0,0-.58.19A.36.36,0,0,1,56,31c-.17-.17,0-.36.58-.58s.94-.37,1.11-.45a2.45,2.45,0,0,0,1-2.05c0-.43-.17-.65-.52-.65l-.39.37a3.23,3.23,0,0,0-.91.61l-.65.62a1.74,1.74,0,0,0-.78-.13h-.76a.08.08,0,0,0,0,0Zm-1.13,8.76c.06.13.14.2.23.2a1,1,0,0,1,.62.2.76.76,0,0,0,.65.08.49.49,0,0,0,.15.24.47.47,0,0,0,.49.27l.15.16a.7.7,0,0,1,.08.14,4.23,4.23,0,0,0,.21.45l.05,0,0,.11a.54.54,0,0,0,.41.06.48.48,0,0,1,.32,0c0,.09,0,.18,0,.28h.08a1.81,1.81,0,0,0,0,.31,3.07,3.07,0,0,1,.06.57v.25a.12.12,0,0,1-.13.13,1.06,1.06,0,0,0-.41.75c0,.17.11.23.34.19a.4.4,0,0,1,.48.19,1,1,0,0,1,.27.75v1.14a.42.42,0,0,0,.19.38c.13.08.19.16.19.25a4.17,4.17,0,0,1-.13.94,1.61,1.61,0,0,1-.38.82q-.14.12-.66,0a4.22,4.22,0,0,0-.92-.13c-.17,0-.35.26-.52.76a8.39,8.39,0,0,0-.4,1.15c-.08.34-.26.51-.52.51a2.24,2.24,0,0,0-.52.06H54l-.43.69-.14.18a6.13,6.13,0,0,1-3.86-1.68l.67-.67a6.94,6.94,0,0,0,1.23-.29l.22-.09c.68-.3.62-.85,1-1.44.22-.39.86-.83.35-1.27.57-1-2.08-1-2.55-.79s-.2.85-.49,1.29c-.15.23-.4.23-.6.39a3.36,3.36,0,0,0-1,1.32v0a6.5,6.5,0,0,1-.43-1l.1,0c-.05-.1-.07-.18,0-.21h.13v.13c.33.08.55.08.63,0a4.74,4.74,0,0,0,.19-.71,8.4,8.4,0,0,1,.7-1.49.59.59,0,0,1-.3-.39c0-.17-.14-.21-.3-.13a.43.43,0,0,0-.24.39.75.75,0,0,1-.24.51.69.69,0,0,1-.5.25.34.34,0,0,0-.38-.38.74.74,0,0,0-.51.26c-.17,0-.57,0-1.21.12a2.52,2.52,0,0,1-1.21,0c-.17-.16,0-.34.64-.51A1.76,1.76,0,0,1,46,37.63a2,2,0,0,0,.77.26l.25-.26h.13c.25,0,.4.22.44.65s.15.64.32.64a.72.72,0,0,0,.51-.26V38c.17-.69.3-1.16.38-1.42v-.38a2.13,2.13,0,0,1,.4-.63h.15a1.23,1.23,0,0,1,.59-.27,2,2,0,0,0,.25-.79c.26-.08.7-.26,1.34-.52s1-.52,1-.78v-.07a6.14,6.14,0,0,1,.86-.12A.56.56,0,0,0,53.54,33.34ZM52.73,2V7.77A30.48,30.48,0,0,0,32.83,16l-4.11-4.11A36.15,36.15,0,0,1,52.73,2ZM27.36,13.28l4.11,4.11A30.44,30.44,0,0,0,23.21,37.3H17.39A36.22,36.22,0,0,1,27.36,13.28Z"/><path d="M156.36,42.81h-7.24L134.49,18.06l-.15,0V42.81h-7.26V6.59h7.26L149,31.32l.15,0V6.59h7.24Z"/><path d="M177.69,42.81a15.8,15.8,0,0,1-.68-1.94,13.1,13.1,0,0,1-.41-2.09A10,10,0,0,1,173.65,42a7.4,7.4,0,0,1-4.37,1.3,9.11,9.11,0,0,1-6.52-2.18,7.82,7.82,0,0,1-2.28-5.94,7.1,7.1,0,0,1,3-6.13q3-2.18,8.9-2.17h4.05V24.78a4.17,4.17,0,0,0-1-3,3.94,3.94,0,0,0-3-1.07,3.9,3.9,0,0,0-2.72.86,3,3,0,0,0-1,2.37l-7,0,0-.15a6.83,6.83,0,0,1,3-5.89,12.89,12.89,0,0,1,8.23-2.47,12,12,0,0,1,7.84,2.45,8.47,8.47,0,0,1,3,7V36a21,21,0,0,0,.29,3.55,17.85,17.85,0,0,0,.9,3.31ZM171.05,38a6.24,6.24,0,0,0,3.41-.94,4.94,4.94,0,0,0,2-2.19V31h-4.05a4.84,4.84,0,0,0-3.51,1.16,3.74,3.74,0,0,0-1.2,2.8,2.79,2.79,0,0,0,.9,2.16A3.46,3.46,0,0,0,171.05,38Z"/><path d="M197.23,9.3v6.6h4.53V21h-4.53V34.7a3.12,3.12,0,0,0,.65,2.24,2.29,2.29,0,0,0,1.74.67,6.85,6.85,0,0,0,1-.06,8.59,8.59,0,0,0,1-.21l.62,5.25a15,15,0,0,1-2.14.56,13.32,13.32,0,0,1-2.26.19A7.73,7.73,0,0,1,192,41.27q-2-2.07-2-6.54V21H186V15.9H190V9.3Z"/><path d="M217.55,29.1a14.43,14.43,0,0,1,3.36-9.86q3.36-3.84,9.3-3.84t9.35,3.83A14.33,14.33,0,0,1,243,29.1v.53a14.43,14.43,0,0,1-3.37,9.89q-3.37,3.81-9.32,3.82t-9.34-3.82a14.38,14.38,0,0,1-3.37-9.89Zm7.24.51a11.74,11.74,0,0,0,1.29,5.91,5,5,0,0,0,8.3,0,11.61,11.61,0,0,0,1.3-5.89v-.52a11.54,11.54,0,0,0-1.31-5.83A4.47,4.47,0,0,0,230.21,21a4.4,4.4,0,0,0-4.12,2.27,11.56,11.56,0,0,0-1.3,5.82Z"/><path d="M253.41,15.9l.32,3.85A9.83,9.83,0,0,1,257,16.54a8.62,8.62,0,0,1,4.4-1.14A8.1,8.1,0,0,1,267.81,18q2.29,2.57,2.29,8V42.81h-7.29V26a5.47,5.47,0,0,0-1.09-3.85A4.4,4.4,0,0,0,258.41,21a5.58,5.58,0,0,0-2.59.58,5.36,5.36,0,0,0-1.92,1.66V42.81h-7.26V15.9Z"/><path d="M289.41,35.4a2.55,2.55,0,0,0-1.15-2.07A11.9,11.9,0,0,0,284,31.79a17.2,17.2,0,0,1-7.21-2.87,6.26,6.26,0,0,1-2.42-5.19,7.42,7.42,0,0,1,2.92-5.91,11.91,11.91,0,0,1,7.82-2.42,12.83,12.83,0,0,1,8.2,2.41,7.11,7.11,0,0,1,2.92,6.1l0,.15h-7a3.54,3.54,0,0,0-1-2.64,5,5,0,0,0-5.8-.16,2.71,2.71,0,0,0-1,2.15,2.46,2.46,0,0,0,1.06,2,11.74,11.74,0,0,0,4.29,1.42A17.28,17.28,0,0,1,294,29.79a6.42,6.42,0,0,1,2.41,5.31A7,7,0,0,1,293.34,41a13.43,13.43,0,0,1-8.21,2.31q-5.37,0-8.49-2.73a7.6,7.6,0,0,1-3-6.21l.05-.14h6.64a3.76,3.76,0,0,0,1.42,3.13,5.8,5.8,0,0,0,3.5,1,5.07,5.07,0,0,0,3.08-.8A2.57,2.57,0,0,0,289.41,35.4Z"/><path d="M155.74,49.88v24q0,6.11-4,9.41t-10.55,3.31q-6.49,0-10.49-3.31t-4-9.41v-24H134v24a6.94,6.94,0,0,0,1.92,5.35A7.41,7.41,0,0,0,141.16,81a7.68,7.68,0,0,0,5.35-1.76,6.93,6.93,0,0,0,1.94-5.37v-24Z"/><path d="M167.47,59.19l.32,3.85a9.93,9.93,0,0,1,3.31-3.21,8.62,8.62,0,0,1,4.4-1.14,8.1,8.1,0,0,1,6.37,2.56q2.3,2.56,2.29,8V86.1h-7.29V69.27a5.47,5.47,0,0,0-1.1-3.85,4.37,4.37,0,0,0-3.3-1.13,5.58,5.58,0,0,0-2.59.58A5.46,5.46,0,0,0,168,66.53V86.1H160.7V59.19Z"/><path d="M213.78,86.63a12.13,12.13,0,0,1-9.3-3.73A13.37,13.37,0,0,1,201,73.42v-1a14.68,14.68,0,0,1,3.3-9.87,10.93,10.93,0,0,1,8.84-3.86q5.46,0,8.46,3.28t3,8.88v4H208.53l-.05.15a7,7,0,0,0,1.78,4.36A5.55,5.55,0,0,0,214.55,81a13.75,13.75,0,0,0,4-.49A18,18,0,0,0,222,79l2,4.49a13.4,13.4,0,0,1-4.31,2.24A18.67,18.67,0,0,1,213.78,86.63Zm-.65-22.34A3.77,3.77,0,0,0,210,65.83a8,8,0,0,0-1.44,4l.07.13h8.91v-.65a5.83,5.83,0,0,0-1.08-3.69A3.93,3.93,0,0,0,213.13,64.29Z"/><path d="M242.72,78.69a2.52,2.52,0,0,0-1.15-2.06,11.8,11.8,0,0,0-4.29-1.55,17.2,17.2,0,0,1-7.21-2.87A6.26,6.26,0,0,1,227.65,67a7.42,7.42,0,0,1,2.92-5.91,11.92,11.92,0,0,1,7.83-2.42,12.82,12.82,0,0,1,8.19,2.41,7.15,7.15,0,0,1,2.93,6.1l-.05.15h-7a3.54,3.54,0,0,0-1-2.64,5,5,0,0,0-5.8-.16,2.71,2.71,0,0,0-1,2.15,2.46,2.46,0,0,0,1.06,2A11.74,11.74,0,0,0,240,70.16a17.41,17.41,0,0,1,7.39,2.92,6.43,6.43,0,0,1,2.41,5.31,7.08,7.08,0,0,1-3.11,5.94,13.46,13.46,0,0,1-8.2,2.3q-5.38,0-8.5-2.73a7.6,7.6,0,0,1-3-6.2l.05-.15h6.64a3.76,3.76,0,0,0,1.42,3.13,5.8,5.8,0,0,0,3.5,1,5,5,0,0,0,3.08-.8A2.57,2.57,0,0,0,242.72,78.69Z"/><path d="M205.7,8.92a3.53,3.53,0,0,1,1.08-2.66,4.64,4.64,0,0,1,5.88,0,3.51,3.51,0,0,1,1.1,2.66,3.54,3.54,0,0,1-1.11,2.69,4.63,4.63,0,0,1-5.85,0A3.54,3.54,0,0,1,205.7,8.92Zm7.64,33.89h-7.22V15.89h7.22Z"/><path d="M188.89,52.21A3.5,3.5,0,0,1,190,49.55a4.64,4.64,0,0,1,5.88,0,3.51,3.51,0,0,1,1.1,2.66,3.54,3.54,0,0,1-1.11,2.69,4.63,4.63,0,0,1-5.85,0A3.54,3.54,0,0,1,188.89,52.21Zm7.64,33.89h-7.21V59.18h7.21Z"/></g></g></svg>